# xmcd
#
# Track frame offsets: 
#        150
#        24697
#        56141
#        77120
#        97179
#        120312
#        124647
#        147410
#        171435
#        207393
#        227552
#        268208
#
# Disc length: 3775 seconds
#
# Revision: 0
# Processed by: cddbd v1.5.2PL0 Copyright (c) Steve Scherf et al.
# Submitted via: ExactAudioCopyFreeDBPlugin 1.0
#
DISCID=b10ebd0c
DTITLE=Patricia Barber - Cafe Blue 24K Gold HDCD  (1998)
DYEAR=1994
DGENRE=Blues
TTITLE0=What A Shame
TTITLE1=Morning Grace
TTITLE2=The Thrill Is Gone
TTITLE3=Romanesque
TTITLE4=Yellow Car III
TTITLE5=Wood Is A Pleasant Thing To Think About
TTITLE6=Inch Worm
TTITLE7=Ode to Billy Joe
TTITLE8=Too Rich For My Blood
TTITLE9=A Taste of Honey
TTITLE10=Nardis
TTITLE11=Manha De Carnaval
EXTD=
EXTT0=
EXTT1=
EXTT2=
EXTT3=
EXTT4=
EXTT5=
EXTT6=
EXTT7=
EXTT8=
EXTT9=
EXTT10=
EXTT11=
PLAYORDER=
